<?xml version="1.0" standalone="no"?>
<!DOCTYPE svg PUBLIC "-//W3C//DTD SVG 20010904//EN"
 "http://www.w3.org/TR/2001/REC-SVG-20010904/DTD/svg10.dtd">
<svg version="1.0" xmlns="http://www.w3.org/2000/svg"
 width="674.000000pt" height="742.000000pt" viewBox="0 0 674.000000 742.000000"
 preserveAspectRatio="xMidYMid meet">

<g transform="translate(0.000000,742.000000) scale(0.100000,-0.100000)"
fill="#000000" stroke="none">
<path d="M1045 7100 c-8 -14 3 -30 21 -30 8 0 14 9 14 20 0 21 -24 28 -35 10z"/>
<path d="M250 7085 c0 -9 9 -15 25 -15 24 0 25 -2 25 -70 0 -63 2 -70 20 -70
18 0 20 7 20 70 0 68 1 70 25 70 16 0 25 6 25 15 0 12 -14 15 -70 15 -56 0
-70 -3 -70 -15z"/>
<path d="M540 7015 l0 -85 45 0 c61 0 95 32 95 89 0 52 -34 81 -96 81 l-44 0
0 -85z m88 43 c7 -7 12 -26 12 -43 0 -37 -16 -55 -47 -55 -21 0 -23 4 -23 55
0 51 2 55 23 55 13 0 28 -5 35 -12z"/>
<path d="M930 7015 l0 -85 45 0 c33 0 45 4 45 15 0 10 -10 15 -30 15 l-30 0 0
70 c0 56 -3 70 -15 70 -12 0 -15 -16 -15 -85z"/>
<path d="M1243 7083 c-7 -3 -13 -11 -13 -19 0 -8 -4 -14 -10 -14 -5 0 -10 -7
-10 -15 0 -8 5 -15 10 -15 6 0 10 -15 10 -33 0 -37 15 -57 42 -57 22 0 24 26
3 34 -8 3 -15 17 -15 31 0 16 6 25 15 25 8 0 15 7 15 15 0 8 -6 15 -14 15 -8
0 -16 8 -18 18 -2 11 -9 17 -15 15z"/>
<path d="M402 7034 c-46 -32 -15 -104 45 -104 28 0 63 33 63 60 0 27 -35 60
-63 60 -12 0 -33 -7 -45 -16z m63 -44 c0 -18 -6 -26 -22 -28 -18 -3 -23 1 -23
21 0 28 9 39 30 35 9 -2 15 -14 15 -28z"/>
<path d="M725 7036 c-42 -30 -14 -106 40 -106 34 0 65 28 65 60 0 49 -63 77
-105 46z m65 -46 c0 -23 -4 -30 -20 -30 -11 0 -23 7 -26 15 -9 23 3 45 26 45
16 0 20 -7 20 -30z"/>
<path d="M1040 6990 c0 -53 2 -60 20 -60 18 0 20 7 20 60 0 53 -2 60 -20 60
-18 0 -20 -7 -20 -60z"/>
<path d="M1122 7038 c-14 -14 -16 -48 -4 -48 5 0 17 -7 28 -16 18 -15 18 -15
-8 -11 -22 3 -28 0 -28 -14 0 -22 38 -26 71 -9 28 16 23 38 -13 60 l-33 20 28
0 c17 0 27 5 27 15 0 18 -50 21 -68 3z"/>
<path d="M4794 6703 c-12 -2 -30 -13 -40 -25 -17 -18 -19 -38 -19 -179 0 -221
-25 -204 300 -204 325 0 300 -17 300 205 0 221 23 205 -283 206 -130 1 -247 0
-258 -3z m286 -203 l0 -60 -33 0 c-18 0 -39 6 -46 13 -11 10 -13 10 -7 0 4 -8
1 -13 -7 -13 -8 0 -17 7 -21 15 -7 20 -36 19 -52 -2 -22 -31 -25 -7 -6 43 25
63 44 67 62 14 l14 -41 13 25 c8 15 22 26 33 26 13 0 20 7 20 20 0 11 7 20 15
20 12 0 15 -13 15 -60z m90 -1 l0 -60 -37 3 c-31 2 -39 7 -41 26 -4 28 14 52
39 52 12 0 19 7 19 20 0 11 5 20 10 20 6 0 10 -27 10 -61z"/>
<path d="M4936 6501 c-4 -7 -5 -15 -2 -18 9 -9 19 4 14 18 -4 11 -6 11 -12 0z"/>
<path d="M5024 6495 c-8 -19 2 -45 16 -45 5 0 10 14 10 30 0 31 -16 41 -26 15z"/>
<path d="M5117 6495 c-8 -20 3 -47 17 -42 6 2 11 14 11 27 0 27 -20 38 -28 15z"/>
<path d="M2693 6543 c9 -2 23 -2 30 0 6 3 -1 5 -18 5 -16 0 -22 -2 -12 -5z"/>
<path d="M788 6513 c7 -3 16 -2 19 1 4 3 -2 6 -13 5 -11 0 -14 -3 -6 -6z"/>
<path d="M1238 6513 c7 -3 16 -2 19 1 4 3 -2 6 -13 5 -11 0 -14 -3 -6 -6z"/>
<path d="M2808 6513 c7 -3 16 -2 19 1 4 3 -2 6 -13 5 -11 0 -14 -3 -6 -6z"/>
<path d="M2888 6513 c7 -3 16 -2 19 1 4 3 -2 6 -13 5 -11 0 -14 -3 -6 -6z"/>
<path d="M3208 6513 c7 -3 16 -2 19 1 4 3 -2 6 -13 5 -11 0 -14 -3 -6 -6z"/>
<path d="M3318 6513 c7 -3 16 -2 19 1 4 3 -2 6 -13 5 -11 0 -14 -3 -6 -6z"/>
<path d="M3598 6513 c7 -3 16 -2 19 1 4 3 -2 6 -13 5 -11 0 -14 -3 -6 -6z"/>
<path d="M3898 6513 c7 -3 16 -2 19 1 4 3 -2 6 -13 5 -11 0 -14 -3 -6 -6z"/>
<path d="M798 6483 c7 -3 16 -2 19 1 4 3 -2 6 -13 5 -11 0 -14 -3 -6 -6z"/>
<path d="M1003 6483 c9 -2 23 -2 30 0 6 3 -1 5 -18 5 -16 0 -22 -2 -12 -5z"/>
<path d="M1308 6483 c7 -3 16 -2 19 1 4 3 -2 6 -13 5 -11 0 -14 -3 -6 -6z"/>
<path d="M2803 6483 c9 -2 23 -2 30 0 6 3 -1 5 -18 5 -16 0 -22 -2 -12 -5z"/>
<path d="M4078 6483 c7 -3 16 -2 19 1 4 3 -2 6 -13 5 -11 0 -14 -3 -6 -6z"/>
<path d="M453 6473 c9 -2 25 -2 35 0 9 3 1 5 -18 5 -19 0 -27 -2 -17 -5z"/>
<path d="M1460 6466 c0 -2 8 -10 18 -17 15 -13 16 -12 3 4 -13 16 -21 21 -21
13z"/>
<path d="M548 6448 c5 -5 16 -8 23 -6 8 3 3 7 -10 11 -17 4 -21 3 -13 -5z"/>
<path d="M998 6448 c5 -5 16 -8 23 -6 8 3 3 7 -10 11 -17 4 -21 3 -13 -5z"/>
<path d="M2688 6443 c6 -2 18 -2 25 0 6 3 1 5 -13 5 -14 0 -19 -2 -12 -5z"/>
<path d="M2808 6443 c7 -3 16 -2 19 1 4 3 -2 6 -13 5 -11 0 -14 -3 -6 -6z"/>
<path d="M2878 6443 c7 -3 16 -2 19 1 4 3 -2 6 -13 5 -11 0 -14 -3 -6 -6z"/>
<path d="M3318 6443 c7 -3 16 -2 19 1 4 3 -2 6 -13 5 -11 0 -14 -3 -6 -6z"/>
<path d="M5629 5469 c-40 -15 -49 -48 -49 -183 0 -145 9 -180 52 -195 42 -15
634 -15 676 0 42 15 52 50 52 189 0 139 -10 174 -52 189 -39 14 -642 13 -679
0z m341 -189 c0 -33 -4 -60 -10 -60 -6 0 -10 27 -10 60 0 33 4 60 10 60 6 0
10 -27 10 -60z m-132 38 c17 -17 15 -64 -4 -82 -8 -9 -29 -16 -45 -16 -29 0
-29 1 -29 55 l0 55 33 0 c18 0 38 -5 45 -12z m268 -13 c9 -8 11 -15 5 -15 -15
0 -14 -57 2 -63 6 -3 2 -6 -10 -6 -20 -1 -23 4 -23 34 0 19 -4 35 -10 35 -5 0
-10 -7 -10 -15 0 -10 -10 -15 -30 -15 -23 0 -28 -4 -23 -16 3 -9 13 -14 24
-11 11 3 19 1 19 -5 0 -16 -52 -4 -64 15 -18 28 5 52 50 53 21 1 40 6 42 13 5
15 10 14 28 -4z m-178 -17 c20 -20 14 -28 -19 -28 -20 0 -29 -4 -26 -12 2 -7
14 -13 26 -12 11 0 21 -3 21 -8 0 -5 -15 -8 -32 -6 -26 2 -34 8 -36 26 -6 42
37 69 66 40z m270 -10 c3 -14 -3 -18 -27 -18 -24 0 -29 -4 -24 -16 3 -9 13
-14 24 -11 11 3 19 1 19 -4 0 -13 -44 -11 -58 3 -16 16 -15 41 0 56 18 18 62
11 66 -10z"/>
<path d="M5780 5275 c0 -46 13 -58 38 -33 25 25 8 78 -25 78 -9 0 -13 -15 -13
-45z"/>
<path d="M6005 5280 c-3 -5 3 -10 15 -10 12 0 18 5 15 10 -3 6 -10 10 -15 10
-5 0 -12 -4 -15 -10z"/>
<path d="M5885 5280 c-3 -5 1 -10 9 -10 9 0 16 5 16 10 0 6 -4 10 -9 10 -6 0
-13 -4 -16 -10z"/>
<path d="M6145 5280 c-3 -5 3 -10 15 -10 12 0 18 5 15 10 -3 6 -10 10 -15 10
-5 0 -12 -4 -15 -10z"/>
<path d="M384 5337 c-3 -8 -4 -36 -2 -63 l3 -49 60 0 60 0 0 60 0 60 -58 3
c-42 2 -59 -1 -63 -11z m106 -18 c0 -5 -12 -25 -27 -44 -25 -32 -29 -33 -45
-18 -23 21 -23 35 0 31 9 -2 25 7 35 19 19 24 37 30 37 12z"/>
<path d="M1390 5275 c0 -40 2 -45 23 -44 16 1 18 2 5 6 -10 2 -18 11 -18 18 0
7 8 16 18 18 16 4 16 5 0 6 -10 0 -18 7 -18 15 0 8 8 17 18 19 13 4 11 5 -5 6
-21 1 -23 -4 -23 -44z"/>
<path d="M2513 5275 c0 -27 2 -38 4 -22 2 15 2 37 0 50 -2 12 -4 0 -4 -28z"/>
<path d="M2753 5275 c0 -27 2 -38 4 -22 2 15 2 37 0 50 -2 12 -4 0 -4 -28z"/>
<path d="M1515 5280 c-3 -6 1 -7 9 -4 18 7 21 14 7 14 -6 0 -13 -4 -16 -10z"/>
<path d="M1918 5283 c7 -3 16 -2 19 1 4 3 -2 6 -13 5 -11 0 -14 -3 -6 -6z"/>
<path d="M1980 5281 c12 -9 11 -11 -7 -11 -13 0 -23 -4 -23 -9 0 -4 11 -6 25
-3 27 5 29 23 4 30 -11 3 -11 2 1 -7z"/>
<path d="M2208 5283 c7 -3 16 -2 19 1 4 3 -2 6 -13 5 -11 0 -14 -3 -6 -6z"/>
<path d="M2338 5283 c7 -3 16 -2 19 1 4 3 -2 6 -13 5 -11 0 -14 -3 -6 -6z"/>
<path d="M2398 5283 c7 -3 16 -2 19 1 4 3 -2 6 -13 5 -11 0 -14 -3 -6 -6z"/>
<path d="M2530 5286 c0 -2 7 -7 16 -10 8 -3 12 -2 9 4 -6 10 -25 14 -25 6z"/>
<path d="M2652 5260 c0 -19 2 -27 5 -17 2 9 2 25 0 35 -3 9 -5 1 -5 -18z"/>
<path d="M2715 5280 c-3 -6 1 -7 9 -4 18 7 21 14 7 14 -6 0 -13 -4 -16 -10z"/>
<path d="M2818 5283 c7 -3 16 -2 19 1 4 3 -2 6 -13 5 -11 0 -14 -3 -6 -6z"/>
<path d="M3058 5283 c7 -3 16 -2 19 1 4 3 -2 6 -13 5 -11 0 -14 -3 -6 -6z"/>
<path d="M3327 5283 c-3 -5 5 -8 18 -8 13 0 21 3 18 8 -2 4 -10 7 -18 7 -8 0
-16 -3 -18 -7z"/>
<path d="M3458 5283 c7 -3 16 -2 19 1 4 3 -2 6 -13 5 -11 0 -14 -3 -6 -6z"/>
<path d="M3733 5245 c0 -27 2 -38 4 -22 2 15 2 37 0 50 -2 12 -4 0 -4 -28z"/>
<path d="M3750 5286 c0 -2 7 -7 16 -10 8 -3 12 -2 9 4 -6 10 -25 14 -25 6z"/>
<path d="M3802 5260 c0 -19 2 -27 5 -17 2 9 2 25 0 35 -3 9 -5 1 -5 -18z"/>
<path d="M3958 5283 c7 -3 16 -2 19 1 4 3 -2 6 -13 5 -11 0 -14 -3 -6 -6z"/>
<path d="M1454 5260 c0 -13 4 -16 10 -10 7 7 7 13 0 20 -6 6 -10 3 -10 -10z"/>
<path d="M1728 5263 c6 -2 18 -2 25 0 6 3 1 5 -13 5 -14 0 -19 -2 -12 -5z"/>
<path d="M2068 5263 c7 -3 16 -2 19 1 4 3 -2 6 -13 5 -11 0 -14 -3 -6 -6z"/>
<path d="M3508 5263 c6 -2 18 -2 25 0 6 3 1 5 -13 5 -14 0 -19 -2 -12 -5z"/>
<path d="M3948 5263 c6 -2 18 -2 25 0 6 3 1 5 -13 5 -14 0 -19 -2 -12 -5z"/>
<path d="M2065 5240 c-16 -7 -17 -9 -3 -9 9 -1 20 4 23 9 7 11 7 11 -20 0z"/>
<path d="M2197 5239 c7 -7 15 -10 18 -7 3 3 -2 9 -12 12 -14 6 -15 5 -6 -5z"/>
<path d="M2327 5239 c7 -7 15 -10 18 -7 3 3 -2 9 -12 12 -14 6 -15 5 -6 -5z"/>
<path d="M2540 5240 c-9 -6 -10 -10 -3 -10 6 0 15 5 18 10 8 12 4 12 -15 0z"/>
<path d="M2605 5240 c-16 -7 -17 -9 -3 -9 9 -1 20 4 23 9 7 11 7 11 -20 0z"/>
<path d="M3327 5238 c2 -5 10 -8 18 -8 8 0 16 3 18 8 3 4 -5 7 -18 7 -13 0
-21 -3 -18 -7z"/>
<path d="M3760 5240 c-9 -6 -10 -10 -3 -10 6 0 15 5 18 10 8 12 4 12 -15 0z"/>
<path d="M3948 5238 c5 -5 16 -8 23 -6 8 3 3 7 -10 11 -17 4 -21 3 -13 -5z"/>
<path d="M1618 5233 c7 -3 16 -2 19 1 4 3 -2 6 -13 5 -11 0 -14 -3 -6 -6z"/>
<path d="M1738 5233 c7 -3 16 -2 19 1 4 3 -2 6 -13 5 -11 0 -14 -3 -6 -6z"/>
<path d="M1968 5233 c7 -3 16 -2 19 1 4 3 -2 6 -13 5 -11 0 -14 -3 -6 -6z"/>
<path d="M2118 5233 c7 -3 16 -2 19 1 4 3 -2 6 -13 5 -11 0 -14 -3 -6 -6z"/>
<path d="M2868 5233 c7 -3 16 -2 19 1 4 3 -2 6 -13 5 -11 0 -14 -3 -6 -6z"/>
<path d="M2938 5233 c7 -3 16 -2 19 1 4 3 -2 6 -13 5 -11 0 -14 -3 -6 -6z"/>
<path d="M3108 5233 c7 -3 16 -2 19 1 4 3 -2 6 -13 5 -11 0 -14 -3 -6 -6z"/>
<path d="M3518 5233 c7 -3 16 -2 19 1 4 3 -2 6 -13 5 -11 0 -14 -3 -6 -6z"/>
<path d="M3638 5233 c7 -3 16 -2 19 1 4 3 -2 6 -13 5 -11 0 -14 -3 -6 -6z"/>
<path d="M3858 5233 c7 -3 16 -2 19 1 4 3 -2 6 -13 5 -11 0 -14 -3 -6 -6z"/>
<path d="M4018 5233 c7 -3 16 -2 19 1 4 3 -2 6 -13 5 -11 0 -14 -3 -6 -6z"/>
<path d="M4108 5233 c7 -3 16 -2 19 1 4 3 -2 6 -13 5 -11 0 -14 -3 -6 -6z"/>
<path d="M5629 4729 c-40 -15 -49 -48 -49 -183 0 -145 9 -180 52 -195 42 -15
634 -15 676 0 42 15 52 50 52 189 0 139 -10 174 -52 189 -39 14 -642 13 -679
0z m341 -189 c0 -33 -4 -60 -10 -60 -6 0 -10 27 -10 60 0 33 4 60 10 60 6 0
10 -27 10 -60z m-132 38 c17 -17 15 -64 -4 -82 -8 -9 -29 -16 -45 -16 -29 0
-29 1 -29 55 l0 55 33 0 c18 0 38 -5 45 -12z m268 -13 c9 -8 11 -15 5 -15 -15
0 -14 -57 2 -63 6 -3 2 -6 -10 -6 -20 -1 -23 4 -23 34 0 19 -4 35 -10 35 -5 0
-10 -7 -10 -15 0 -10 -10 -15 -30 -15 -23 0 -28 -4 -23 -16 3 -9 13 -14 24
-11 11 3 19 1 19 -5 0 -16 -52 -4 -64 15 -18 28 5 52 50 53 21 1 40 6 42 13 5
15 10 14 28 -4z m-178 -17 c20 -20 14 -28 -19 -28 -20 0 -29 -4 -26 -12 2 -7
14 -13 26 -12 11 0 21 -3 21 -8 0 -5 -15 -8 -32 -6 -26 2 -34 8 -36 26 -6 42
37 69 66 40z m270 -10 c3 -14 -3 -18 -27 -18 -24 0 -29 -4 -24 -16 3 -9 13
-14 24 -11 11 3 19 1 19 -4 0 -13 -44 -11 -58 3 -16 16 -15 41 0 56 18 18 62
11 66 -10z"/>
<path d="M5780 4535 c0 -46 13 -58 38 -33 25 25 8 78 -25 78 -9 0 -13 -15 -13
-45z"/>
<path d="M6005 4540 c-3 -5 3 -10 15 -10 12 0 18 5 15 10 -3 6 -10 10 -15 10
-5 0 -12 -4 -15 -10z"/>
<path d="M5885 4540 c-3 -5 1 -10 9 -10 9 0 16 5 16 10 0 6 -4 10 -9 10 -6 0
-13 -4 -16 -10z"/>
<path d="M6145 4540 c-3 -5 3 -10 15 -10 12 0 18 5 15 10 -3 6 -10 10 -15 10
-5 0 -12 -4 -15 -10z"/>
<path d="M384 4597 c-3 -8 -4 -36 -2 -63 l3 -49 60 0 60 0 0 60 0 60 -58 3
c-42 2 -59 -1 -63 -11z m106 -18 c0 -5 -12 -25 -27 -44 -25 -32 -29 -33 -45
-18 -23 21 -23 35 0 31 9 -2 25 7 35 19 19 24 37 30 37 12z"/>
<path d="M2673 4535 c0 -27 2 -38 4 -22 2 15 2 37 0 50 -2 12 -4 0 -4 -28z"/>
<path d="M2990 4576 c0 -2 9 -6 20 -9 11 -3 18 -1 14 4 -5 9 -34 13 -34 5z"/>
<path d="M3053 4535 c0 -27 2 -38 4 -22 2 15 2 37 0 50 -2 12 -4 0 -4 -28z"/>
<path d="M3498 4573 c7 -3 16 -2 19 1 4 3 -2 6 -13 5 -11 0 -14 -3 -6 -6z"/>
<path d="M3771 4533 c0 -27 3 -41 6 -33 3 8 11 18 17 22 8 5 7 8 -1 8 -20 0
-15 38 5 43 13 4 11 5 -5 6 -21 1 -23 -3 -22 -46z"/>
<path d="M4040 4576 c0 -2 9 -6 20 -9 11 -3 18 -1 14 4 -5 9 -34 13 -34 5z"/>
<path d="M1868 4543 c7 -3 16 -2 19 1 4 3 -2 6 -13 5 -11 0 -14 -3 -6 -6z"/>
<path d="M1930 4541 c12 -9 11 -11 -7 -11 -13 0 -23 -4 -23 -9 0 -4 11 -6 25
-3 27 5 29 23 4 30 -11 3 -11 2 1 -7z"/>
<path d="M2048 4543 c7 -3 16 -2 19 1 4 3 -2 6 -13 5 -11 0 -14 -3 -6 -6z"/>
<path d="M2108 4543 c7 -3 16 -2 19 1 4 3 -2 6 -13 5 -11 0 -14 -3 -6 -6z"/>
<path d="M2296 4542 c-2 -4 4 -8 14 -8 10 0 16 4 14 8 -3 4 -9 8 -14 8 -5 0
-11 -4 -14 -8z"/>
<path d="M2355 4540 c-3 -6 1 -7 9 -4 18 7 21 14 7 14 -6 0 -13 -4 -16 -10z"/>
<path d="M2465 4541 c-3 -7 0 -8 9 -5 10 4 16 -3 19 -23 l5 -28 -2 29 c-1 30
-19 45 -31 27z"/>
<path d="M2567 4543 c-3 -5 5 -8 18 -8 13 0 21 3 18 8 -2 4 -10 7 -18 7 -8 0
-16 -3 -18 -7z"/>
<path d="M2635 4540 c-3 -6 1 -7 9 -4 18 7 21 14 7 14 -6 0 -13 -4 -16 -10z"/>
<path d="M2762 4520 c0 -19 2 -27 5 -17 2 9 2 25 0 35 -3 9 -5 1 -5 -18z"/>
<path d="M2816 4542 c-2 -4 4 -8 14 -8 10 0 16 4 14 8 -3 4 -9 8 -14 8 -5 0
-11 -4 -14 -8z"/>
<path d="M3235 4540 c-3 -6 1 -7 9 -4 18 7 21 14 7 14 -6 0 -13 -4 -16 -10z"/>
<path d="M3326 4542 c-2 -4 4 -8 14 -8 10 0 16 4 14 8 -3 4 -9 8 -14 8 -5 0
-11 -4 -14 -8z"/>
<path d="M3385 4540 c-3 -6 1 -7 9 -4 18 7 21 14 7 14 -6 0 -13 -4 -16 -10z"/>
<path d="M3554 4543 c15 -4 16 -7 5 -14 -11 -7 -10 -9 4 -9 24 0 16 24 -9 27
-18 2 -18 2 0 -4z"/>
<path d="M3608 4543 c7 -3 16 -2 19 1 4 3 -2 6 -13 5 -11 0 -14 -3 -6 -6z"/>
<path d="M3902 4520 c0 -19 2 -27 5 -17 2 9 2 25 0 35 -3 9 -5 1 -5 -18z"/>
<path d="M4158 4543 c7 -3 16 -2 19 1 4 3 -2 6 -13 5 -11 0 -14 -3 -6 -6z"/>
<path d="M4346 4542 c-2 -4 4 -8 14 -8 10 0 16 4 14 8 -3 4 -9 8 -14 8 -5 0
-11 -4 -14 -8z"/>
<path d="M3498 4533 c7 -3 16 -2 19 1 4 3 -2 6 -13 5 -11 0 -14 -3 -6 -6z"/>
<path d="M1748 4523 c6 -2 18 -2 25 0 6 3 1 5 -13 5 -14 0 -19 -2 -12 -5z"/>
<path d="M1818 4523 c7 -3 16 -2 19 1 4 3 -2 6 -13 5 -11 0 -14 -3 -6 -6z"/>
<path d="M2238 4523 c7 -3 16 -2 19 1 4 3 -2 6 -13 5 -11 0 -14 -3 -6 -6z"/>
<path d="M2708 4523 c6 -2 18 -2 25 0 6 3 1 5 -13 5 -14 0 -19 -2 -12 -5z"/>
<path d="M2998 4523 c7 -3 16 -2 19 1 4 3 -2 6 -13 5 -11 0 -14 -3 -6 -6z"/>
<path d="M4048 4523 c7 -3 16 -2 19 1 4 3 -2 6 -13 5 -11 0 -14 -3 -6 -6z"/>
<path d="M2906 4512 c-3 -5 8 -6 25 -4 16 2 29 6 29 8 0 8 -49 4 -54 -4z"/>
<path d="M3254 4512 c3 -6 -2 -13 -11 -15 -16 -4 -16 -5 -1 -6 21 -1 32 15 17
25 -7 4 -9 3 -5 -4z"/>
<path d="M3690 4516 c0 -2 13 -6 29 -8 17 -2 28 -1 25 4 -5 8 -54 12 -54 4z"/>
<path d="M1638 4498 c5 -5 16 -8 23 -6 8 3 3 7 -10 11 -17 4 -21 3 -13 -5z"/>
<path d="M1748 4498 c5 -5 16 -8 23 -6 8 3 3 7 -10 11 -17 4 -21 3 -13 -5z"/>
<path d="M1815 4500 c-16 -7 -17 -9 -3 -9 9 -1 20 4 23 9 7 11 7 11 -20 0z"/>
<path d="M2037 4499 c7 -7 15 -10 18 -7 3 3 -2 9 -12 12 -14 6 -15 5 -6 -5z"/>
<path d="M2235 4500 c-16 -7 -17 -9 -3 -9 9 -1 20 4 23 9 7 11 7 11 -20 0z"/>
<path d="M2357 4499 c7 -7 15 -10 18 -7 3 3 -2 9 -12 12 -14 6 -15 5 -6 -5z"/>
<path d="M2567 4498 c2 -5 10 -8 18 -8 8 0 16 3 18 8 3 4 -5 7 -18 7 -13 0
-21 -3 -18 -7z"/>
<path d="M2708 4498 c5 -5 16 -8 23 -6 8 3 3 7 -10 11 -17 4 -21 3 -13 -5z"/>
<path d="M3185 4500 c-16 -7 -17 -9 -3 -9 9 -1 20 4 23 9 7 11 7 11 -20 0z"/>
<path d="M3387 4499 c7 -7 15 -10 18 -7 3 3 -2 9 -12 12 -14 6 -15 5 -6 -5z"/>
<path d="M3555 4500 c-16 -7 -17 -9 -3 -9 9 -1 20 4 23 9 7 11 7 11 -20 0z"/>
<path d="M1918 4493 c7 -3 16 -2 19 1 4 3 -2 6 -13 5 -11 0 -14 -3 -6 -6z"/>
<path d="M3088 4493 c7 -3 16 -2 19 1 4 3 -2 6 -13 5 -11 0 -14 -3 -6 -6z"/>
<path d="M4278 4493 c7 -3 16 -2 19 1 4 3 -2 6 -13 5 -11 0 -14 -3 -6 -6z"/>
<path d="M3388 4463 c7 -3 16 -2 19 1 4 3 -2 6 -13 5 -11 0 -14 -3 -6 -6z"/>
<path d="M280 4110 c-41 -41 -12 -120 45 -120 14 0 34 9 45 20 41 41 12 120
-45 120 -14 0 -34 -9 -45 -20z m78 -12 c15 -15 15 -61 0 -76 -21 -21 -57 -14
-70 13 -23 51 32 101 70 63z"/>
<path d="M423 4104 c-7 -11 -10 -29 -8 -40 14 -70 16 -74 35 -74 11 0 20 5 20
10 0 6 -7 10 -15 10 -10 0 -15 10 -15 30 0 20 5 30 15 30 8 0 15 5 15 10 0 6
-6 10 -14 10 -8 0 -16 8 -18 18 -3 15 -5 15 -15 -4z"/>
<path d="M820 4106 c0 -8 -6 -17 -12 -20 -10 -5 -10 -7 0 -12 6 -3 12 -21 12
-40 0 -34 22 -56 38 -39 4 4 1 10 -5 12 -7 3 -13 17 -13 33 0 16 6 31 13 34
10 5 10 7 0 12 -7 3 -13 12 -13 20 0 8 -4 14 -10 14 -5 0 -10 -6 -10 -14z"/>
<path d="M490 4038 c0 -26 5 -48 10 -48 6 0 10 16 10 36 0 27 5 37 20 41 30 8
24 20 -10 20 -29 0 -30 -2 -30 -49z"/>
<path d="M575 4080 c-4 -6 5 -10 19 -10 36 0 33 -17 -5 -25 -24 -5 -29 -11
-27 -28 2 -18 10 -22 41 -23 36 -1 37 0 37 35 0 21 -5 42 -12 49 -15 15 -45
16 -53 2z m45 -61 c0 -5 -9 -9 -20 -9 -22 0 -27 16 -7 23 15 5 27 -1 27 -14z"/>
<path d="M671 4076 c-9 -11 -8 -18 4 -30 9 -9 21 -16 26 -16 5 0 9 -4 9 -10 0
-5 -12 -10 -27 -10 -20 0 -24 -3 -16 -11 7 -7 23 -9 37 -5 35 9 34 39 -1 56
l-28 14 28 4 c15 2 25 8 22 13 -9 14 -41 11 -54 -5z"/>
<path d="M890 4080 c-12 -8 -9 -10 12 -10 39 0 44 -17 8 -25 -25 -5 -30 -11
-28 -28 2 -18 10 -22 41 -23 35 -1 37 1 37 28 0 57 -31 83 -70 58z m45 -61
c-4 -5 -16 -9 -28 -9 -21 1 -21 1 -3 15 20 15 41 11 31 -6z"/>
<path d="M990 4039 c0 -27 5 -49 10 -49 6 0 10 16 10 35 0 22 6 38 15 41 23 9
18 22 -10 22 -23 0 -25 -4 -25 -49z"/>
<path d="M1064 4065 c-15 -23 -15 -27 0 -50 17 -26 32 -30 63 -18 14 6 11 9
-15 13 -43 7 -46 24 -4 28 33 3 41 19 20 40 -19 19 -46 14 -64 -13z m56 -5 c0
-5 -12 -10 -26 -10 -14 0 -23 4 -19 10 3 6 15 10 26 10 10 0 19 -4 19 -10z"/>
<path d="M1175 4080 c-4 -6 5 -10 19 -10 36 0 33 -17 -5 -25 -24 -5 -29 -11
-27 -28 2 -18 10 -22 41 -23 36 -1 37 0 37 35 0 21 -5 42 -12 49 -15 15 -45
16 -53 2z m45 -61 c0 -5 -9 -9 -20 -9 -22 0 -27 16 -7 23 15 5 27 -1 27 -14z"/>
<path d="M1271 4076 c-9 -11 -8 -18 4 -30 9 -9 21 -16 26 -16 5 0 9 -4 9 -10
0 -5 -12 -10 -27 -10 -20 0 -24 -3 -16 -11 7 -7 23 -9 37 -5 35 9 34 39 -1 56
l-28 14 28 4 c15 2 25 8 22 13 -9 14 -41 11 -54 -5z"/>
<path d="M5624 3708 c-36 -17 -44 -52 -44 -182 0 -138 10 -178 46 -195 35 -15
653 -15 688 0 36 17 46 57 46 189 0 132 -10 172 -46 189 -33 15 -659 14 -690
-1z m346 -188 c0 -33 -4 -60 -10 -60 -6 0 -10 27 -10 60 0 33 4 60 10 60 6 0
10 -27 10 -60z m-132 38 c17 -17 15 -64 -4 -82 -8 -9 -29 -16 -45 -16 -29 0
-29 1 -29 55 l0 55 33 0 c18 0 38 -5 45 -12z m268 -13 c9 -8 11 -15 5 -15 -15
0 -14 -57 2 -63 6 -3 2 -6 -10 -6 -20 -1 -23 4 -23 34 0 19 -4 35 -10 35 -5 0
-10 -7 -10 -15 0 -10 -10 -15 -30 -15 -23 0 -28 -4 -23 -16 3 -9 13 -14 24
-11 11 3 19 1 19 -5 0 -16 -52 -4 -64 15 -18 28 5 52 50 53 21 1 40 6 42 13 5
15 10 14 28 -4z m-178 -17 c20 -20 14 -28 -19 -28 -20 0 -29 -4 -26 -12 2 -7
14 -13 26 -12 11 0 21 -3 21 -8 0 -5 -15 -8 -32 -6 -26 2 -34 8 -36 26 -6 42
37 69 66 40z m270 -10 c3 -14 -3 -18 -27 -18 -24 0 -29 -4 -24 -16 3 -9 13
-14 24 -11 11 3 19 1 19 -4 0 -13 -44 -11 -58 3 -16 16 -15 41 0 56 18 18 62
11 66 -10z"/>
<path d="M5780 3515 c0 -46 13 -58 38 -33 25 25 8 78 -25 78 -9 0 -13 -15 -13
-45z"/>
<path d="M6005 3520 c-3 -5 3 -10 15 -10 12 0 18 5 15 10 -3 6 -10 10 -15 10
-5 0 -12 -4 -15 -10z"/>
<path d="M5885 3520 c-3 -5 1 -10 9 -10 9 0 16 5 16 10 0 6 -4 10 -9 10 -6 0
-13 -4 -16 -10z"/>
<path d="M6145 3520 c-3 -5 3 -10 15 -10 12 0 18 5 15 10 -3 6 -10 10 -15 10
-5 0 -12 -4 -15 -10z"/>
<path d="M384 3577 c-3 -8 -4 -36 -2 -63 l3 -49 60 0 60 0 0 60 0 60 -58 3
c-42 2 -59 -1 -63 -11z m106 -18 c0 -5 -12 -25 -27 -44 -25 -32 -29 -33 -45
-18 -23 21 -23 35 0 31 9 -2 25 7 35 19 19 24 37 30 37 12z"/>
<path d="M2928 3553 c7 -3 16 -2 19 1 4 3 -2 6 -13 5 -11 0 -14 -3 -6 -6z"/>
<path d="M3383 3515 c0 -27 2 -38 4 -22 2 15 2 37 0 50 -2 12 -4 0 -4 -28z"/>
<path d="M3623 3515 c0 -27 2 -38 4 -22 2 15 2 37 0 50 -2 12 -4 0 -4 -28z"/>
<path d="M1568 3523 c7 -3 16 -2 19 1 4 3 -2 6 -13 5 -11 0 -14 -3 -6 -6z"/>
<path d="M1628 3523 c7 -3 16 -2 19 1 4 3 -2 6 -13 5 -11 0 -14 -3 -6 -6z"/>
<path d="M2028 3523 c7 -3 16 -2 19 1 4 3 -2 6 -13 5 -11 0 -14 -3 -6 -6z"/>
<path d="M2278 3523 c7 -3 16 -2 19 1 4 3 -2 6 -13 5 -11 0 -14 -3 -6 -6z"/>
<path d="M2376 3522 c-2 -4 4 -8 14 -8 10 0 16 4 14 8 -3 4 -9 8 -14 8 -5 0
-11 -4 -14 -8z"/>
<path d="M2448 3523 c7 -3 16 -2 19 1 4 3 -2 6 -13 5 -11 0 -14 -3 -6 -6z"/>
<path d="M2506 3522 c-2 -4 4 -8 14 -8 10 0 16 4 14 8 -3 4 -9 8 -14 8 -5 0
-11 -4 -14 -8z"/>
<path d="M2618 3523 c7 -3 16 -2 19 1 4 3 -2 6 -13 5 -11 0 -14 -3 -6 -6z"/>
<path d="M2695 3520 c-3 -6 1 -7 9 -4 18 7 21 14 7 14 -6 0 -13 -4 -16 -10z"/>
<path d="M2848 3523 c7 -3 16 -2 19 1 4 3 -2 6 -13 5 -11 0 -14 -3 -6 -6z"/>
<path d="M3064 3523 c15 -4 16 -7 5 -14 -11 -7 -10 -9 4 -9 24 0 16 24 -9 27
-18 2 -18 2 0 -4z"/>
<path d="M3115 3520 c-3 -6 1 -7 9 -4 18 7 21 14 7 14 -6 0 -13 -4 -16 -10z"/>
<path d="M3168 3523 c7 -3 16 -2 19 1 4 3 -2 6 -13 5 -11 0 -14 -3 -6 -6z"/>
<path d="M3287 3523 c-3 -5 5 -8 18 -8 13 0 21 3 18 8 -2 4 -10 7 -18 7 -8 0
-16 -3 -18 -7z"/>
<path d="M3400 3526 c0 -2 7 -7 16 -10 8 -3 12 -2 9 4 -6 10 -25 14 -25 6z"/>
<path d="M3522 3500 c0 -19 2 -27 5 -17 2 9 2 25 0 35 -3 9 -5 1 -5 -18z"/>
<path d="M3585 3520 c-3 -6 1 -7 9 -4 18 7 21 14 7 14 -6 0 -13 -4 -16 -10z"/>
<path d="M3682 3500 c0 -19 2 -27 5 -17 2 9 2 25 0 35 -3 9 -5 1 -5 -18z"/>
<path d="M3712 3500 c0 -19 2 -27 5 -17 2 9 2 25 0 35 -3 9 -5 1 -5 -18z"/>
<path d="M3838 3523 c7 -3 16 -2 19 1 4 3 -2 6 -13 5 -11 0 -14 -3 -6 -6z"/>
<path d="M3938 3523 c7 -3 16 -2 19 1 4 3 -2 6 -13 5 -11 0 -14 -3 -6 -6z"/>
<path d="M4082 3500 c0 -19 2 -27 5 -17 2 9 2 25 0 35 -3 9 -5 1 -5 -18z"/>
<path d="M4410 3521 c12 -9 11 -11 -7 -11 -13 0 -23 -4 -23 -9 0 -4 11 -6 25
-3 27 5 29 23 4 30 -11 3 -11 2 1 -7z"/>
<path d="M4618 3523 c7 -3 16 -2 19 1 4 3 -2 6 -13 5 -11 0 -14 -3 -6 -6z"/>
<path d="M4722 3500 c0 -19 2 -27 5 -17 2 9 2 25 0 35 -3 9 -5 1 -5 -18z"/>
<path d="M4814 3523 c15 -4 16 -7 5 -14 -11 -7 -10 -9 4 -9 24 0 16 24 -9 27
-18 2 -18 2 0 -4z"/>
<path d="M4866 3521 c-4 -5 3 -7 14 -4 23 6 26 13 6 13 -8 0 -17 -4 -20 -9z"/>
<path d="M4988 3523 c7 -3 16 -2 19 1 4 3 -2 6 -13 5 -11 0 -14 -3 -6 -6z"/>
<path d="M2928 3513 c7 -3 16 -2 19 1 4 3 -2 6 -13 5 -11 0 -14 -3 -6 -6z"/>
<path d="M1558 3503 c6 -2 18 -2 25 0 6 3 1 5 -13 5 -14 0 -19 -2 -12 -5z"/>
<path d="M1938 3503 c6 -2 18 -2 25 0 6 3 1 5 -13 5 -14 0 -19 -2 -12 -5z"/>
<path d="M2438 3503 c6 -2 18 -2 25 0 6 3 1 5 -13 5 -14 0 -19 -2 -12 -5z"/>
<path d="M2605 3500 c-8 -13 3 -30 18 -29 9 0 9 2 0 6 -18 7 -16 21 5 26 15 4
15 5 0 6 -9 0 -20 -3 -23 -9z"/>
<path d="M2998 3503 c6 -2 18 -2 25 0 6 3 1 5 -13 5 -14 0 -19 -2 -12 -5z"/>
<path d="M3752 3490 c0 -14 2 -19 5 -12 2 6 2 18 0 25 -3 6 -5 1 -5 -13z"/>
<path d="M3828 3503 c6 -2 18 -2 25 0 6 3 1 5 -13 5 -14 0 -19 -2 -12 -5z"/>
<path d="M3925 3500 c-8 -13 3 -30 18 -29 9 0 9 2 0 6 -18 7 -16 21 5 26 15 4
15 5 0 6 -9 0 -20 -3 -23 -9z"/>
<path d="M4178 3503 c6 -2 18 -2 25 0 6 3 1 5 -13 5 -14 0 -19 -2 -12 -5z"/>
<path d="M4668 3503 c6 -2 18 -2 25 0 6 3 1 5 -13 5 -14 0 -19 -2 -12 -5z"/>
<path d="M4928 3503 c6 -2 18 -2 25 0 6 3 1 5 -13 5 -14 0 -19 -2 -12 -5z"/>
<path d="M2714 3492 c3 -6 -2 -13 -11 -15 -16 -4 -16 -5 -1 -6 21 -1 32 15 17
25 -7 4 -9 3 -5 -4z"/>
<path d="M1558 3478 c5 -5 16 -8 23 -6 8 3 3 7 -10 11 -17 4 -21 3 -13 -5z"/>
<path d="M1617 3479 c7 -7 15 -10 18 -7 3 3 -2 9 -12 12 -14 6 -15 5 -6 -5z"/>
<path d="M2067 3479 c7 -7 15 -10 18 -7 3 3 -2 9 -12 12 -14 6 -15 5 -6 -5z"/>
<path d="M2267 3479 c7 -7 15 -10 18 -7 3 3 -2 9 -12 12 -14 6 -15 5 -6 -5z"/>
<path d="M2438 3478 c5 -5 16 -8 23 -6 8 3 3 7 -10 11 -17 4 -21 3 -13 -5z"/>
<path d="M3117 3479 c7 -7 15 -10 18 -7 3 3 -2 9 -12 12 -14 6 -15 5 -6 -5z"/>
<path d="M3287 3478 c2 -5 10 -8 18 -8 8 0 16 3 18 8 3 4 -5 7 -18 7 -13 0
-21 -3 -18 -7z"/>
<path d="M3410 3480 c-9 -6 -10 -10 -3 -10 6 0 15 5 18 10 8 12 4 12 -15 0z"/>
<path d="M3828 3478 c5 -5 16 -8 23 -6 8 3 3 7 -10 11 -17 4 -21 3 -13 -5z"/>
<path d="M4178 3478 c5 -5 16 -8 23 -6 8 3 3 7 -10 11 -17 4 -21 3 -13 -5z"/>
<path d="M4668 3478 c5 -5 16 -8 23 -6 8 3 3 7 -10 11 -17 4 -21 3 -13 -5z"/>
<path d="M4868 3478 c5 -5 16 -8 23 -6 8 3 3 7 -10 11 -17 4 -21 3 -13 -5z"/>
<path d="M1508 3473 c6 -2 18 -2 25 0 6 3 1 5 -13 5 -14 0 -19 -2 -12 -5z"/>
<path d="M1948 3473 c7 -3 16 -2 19 1 4 3 -2 6 -13 5 -11 0 -14 -3 -6 -6z"/>
<path d="M2208 3473 c7 -3 16 -2 19 1 4 3 -2 6 -13 5 -11 0 -14 -3 -6 -6z"/>
<path d="M3008 3473 c7 -3 16 -2 19 1 4 3 -2 6 -13 5 -11 0 -14 -3 -6 -6z"/>
<path d="M4338 3473 c7 -3 16 -2 19 1 4 3 -2 6 -13 5 -11 0 -14 -3 -6 -6z"/>
<path d="M4398 3473 c7 -3 16 -2 19 1 4 3 -2 6 -13 5 -11 0 -14 -3 -6 -6z"/>
<path d="M4938 3473 c7 -3 16 -2 19 1 4 3 -2 6 -13 5 -11 0 -14 -3 -6 -6z"/>
<path d="M5624 2968 c-12 -5 -27 -21 -33 -34 -14 -33 -14 -275 0 -307 20 -44
41 -47 379 -47 338 0 359 3 379 47 14 31 14 260 1 300 -6 17 -22 35 -36 42
-33 15 -659 14 -690 -1z m346 -188 c0 -33 -4 -60 -10 -60 -6 0 -10 27 -10 60
0 33 4 60 10 60 6 0 10 -27 10 -60z m-132 38 c17 -17 15 -64 -4 -82 -8 -9 -29
-16 -45 -16 -29 0 -29 1 -29 55 l0 55 33 0 c18 0 38 -5 45 -12z m268 -13 c9
-8 11 -15 5 -15 -15 0 -14 -57 2 -63 6 -3 2 -6 -10 -6 -20 -1 -23 4 -23 34 0
19 -4 35 -10 35 -5 0 -10 -7 -10 -15 0 -10 -10 -15 -30 -15 -23 0 -28 -4 -23
-16 3 -9 13 -14 24 -11 11 3 19 1 19 -5 0 -16 -52 -4 -64 15 -18 28 5 52 50
53 21 1 40 6 42 13 5 15 10 14 28 -4z m-178 -17 c20 -20 14 -28 -19 -28 -20 0
-29 -4 -26 -12 2 -7 14 -13 26 -12 11 0 21 -3 21 -8 0 -5 -15 -8 -32 -6 -26 2
-34 8 -36 26 -6 42 37 69 66 40z m270 -10 c3 -14 -3 -18 -27 -18 -24 0 -29 -4
-24 -16 3 -9 13 -14 24 -11 11 3 19 1 19 -4 0 -13 -44 -11 -58 3 -16 16 -15
41 0 56 18 18 62 11 66 -10z"/>
<path d="M5780 2775 c0 -46 13 -58 38 -33 25 25 8 78 -25 78 -9 0 -13 -15 -13
-45z"/>
<path d="M6005 2780 c-3 -5 3 -10 15 -10 12 0 18 5 15 10 -3 6 -10 10 -15 10
-5 0 -12 -4 -15 -10z"/>
<path d="M5885 2780 c-3 -5 1 -10 9 -10 9 0 16 5 16 10 0 6 -4 10 -9 10 -6 0
-13 -4 -16 -10z"/>
<path d="M6145 2780 c-3 -5 3 -10 15 -10 12 0 18 5 15 10 -3 6 -10 10 -15 10
-5 0 -12 -4 -15 -10z"/>
<path d="M384 2837 c-3 -8 -4 -36 -2 -63 l3 -49 60 0 60 0 0 60 0 60 -58 3
c-42 2 -59 -1 -63 -11z m106 -18 c0 -5 -12 -25 -27 -44 -25 -32 -29 -33 -45
-18 -23 21 -23 35 0 31 9 -2 25 7 35 19 19 24 37 30 37 12z"/>
<path d="M5624 2228 c-36 -17 -44 -52 -44 -182 0 -138 10 -178 46 -195 35 -15
653 -15 688 0 36 17 46 57 46 189 0 132 -10 172 -46 189 -33 15 -659 14 -690
-1z m346 -188 c0 -33 -4 -60 -10 -60 -6 0 -10 27 -10 60 0 33 4 60 10 60 6 0
10 -27 10 -60z m-132 38 c17 -17 15 -64 -4 -82 -8 -9 -29 -16 -45 -16 -29 0
-29 1 -29 55 l0 55 33 0 c18 0 38 -5 45 -12z m268 -13 c9 -8 11 -15 5 -15 -15
0 -14 -57 2 -63 6 -3 2 -6 -10 -6 -20 -1 -23 4 -23 34 0 19 -4 35 -10 35 -5 0
-10 -7 -10 -15 0 -10 -10 -15 -30 -15 -23 0 -28 -4 -23 -16 3 -9 13 -14 24
-11 11 3 19 1 19 -5 0 -16 -52 -4 -64 15 -18 28 5 52 50 53 21 1 40 6 42 13 5
15 10 14 28 -4z m-178 -17 c20 -20 14 -28 -19 -28 -20 0 -29 -4 -26 -12 2 -7
14 -13 26 -12 11 0 21 -3 21 -8 0 -5 -15 -8 -32 -6 -26 2 -34 8 -36 26 -6 42
37 69 66 40z m270 -10 c3 -14 -3 -18 -27 -18 -24 0 -29 -4 -24 -16 3 -9 13
-14 24 -11 11 3 19 1 19 -4 0 -13 -44 -11 -58 3 -16 16 -15 41 0 56 18 18 62
11 66 -10z"/>
<path d="M5780 2035 c0 -46 13 -58 38 -33 25 25 8 78 -25 78 -9 0 -13 -15 -13
-45z"/>
<path d="M6005 2040 c-3 -5 3 -10 15 -10 12 0 18 5 15 10 -3 6 -10 10 -15 10
-5 0 -12 -4 -15 -10z"/>
<path d="M5885 2040 c-3 -5 1 -10 9 -10 9 0 16 5 16 10 0 6 -4 10 -9 10 -6 0
-13 -4 -16 -10z"/>
<path d="M6145 2040 c-3 -5 3 -10 15 -10 12 0 18 5 15 10 -3 6 -10 10 -15 10
-5 0 -12 -4 -15 -10z"/>
<path d="M428 2103 c12 -2 30 -2 40 0 9 3 -1 5 -23 4 -22 0 -30 -2 -17 -4z"/>
<path d="M1310 2040 c0 -33 4 -60 10 -60 6 0 10 7 10 17 0 14 2 14 20 -2 30
-27 34 -12 5 15 -17 16 -25 34 -25 57 0 18 -4 33 -10 33 -6 0 -10 -27 -10 -60z"/>
<path d="M612 2038 c-2 -57 -2 -58 26 -57 22 1 23 2 5 6 -19 4 -23 12 -26 56
l-3 52 -2 -57z"/>
<path d="M1040 2035 c0 -49 2 -55 21 -55 38 0 59 19 59 53 0 40 -15 57 -52 57
-27 0 -28 -1 -28 -55z m58 33 c27 -27 7 -78 -30 -78 -15 0 -18 8 -18 45 0 37
3 45 18 45 10 0 23 -5 30 -12z"/>
<path d="M383 2045 c0 -22 2 -30 4 -17 2 12 2 30 0 40 -3 9 -5 -1 -4 -23z"/>
<path d="M503 2045 c0 -22 2 -30 4 -17 2 12 2 30 0 40 -3 9 -5 -1 -4 -23z"/>
<path d="M1619 2063 c-12 -16 -12 -17 1 -7 8 6 22 14 30 17 13 5 12 6 -1 6 -9
1 -23 -7 -30 -16z"/>
<path d="M4680 2035 c0 -40 2 -45 23 -44 16 1 18 2 5 6 -13 3 -18 14 -18 38 0
24 5 35 18 38 13 4 11 5 -5 6 -21 1 -23 -4 -23 -44z"/>
<path d="M680 2041 c-8 -15 -8 -27 0 -41 11 -20 44 -27 54 -12 3 5 -4 8 -16 8
-12 -1 -23 5 -25 12 -3 7 5 12 22 12 20 0 26 4 23 18 -5 25 -44 27 -58 3z m45
-1 c3 -5 -3 -10 -14 -10 -12 0 -21 5 -21 10 0 6 6 10 14 10 8 0 18 -4 21 -10z"/>
<path d="M790 2049 l25 -11 -28 -10 c-37 -13 -33 -43 6 -44 26 -1 28 1 25 35
-3 30 -7 36 -28 38 l-25 3 25 -11z m20 -39 c0 -12 -28 -25 -36 -17 -9 9 6 27
22 27 8 0 14 -5 14 -10z"/>
<path d="M840 2020 c0 -22 5 -40 10 -40 6 0 10 15 10 34 0 24 5 36 18 39 10 3
6 5 -10 6 -26 1 -28 -2 -28 -39z"/>
<path d="M901 2015 l2 -40 6 35 c9 50 41 55 41 6 0 -20 5 -36 10 -36 12 0 13
50 2 68 -5 6 -20 11 -35 10 -25 -2 -27 -6 -26 -43z"/>
<path d="M1150 2045 c-26 -32 13 -81 48 -59 34 22 22 74 -18 74 -10 0 -23 -7
-30 -15z m54 -10 c7 -20 -3 -45 -19 -45 -7 0 -18 7 -25 15 -10 12 -10 18 0 30
7 8 18 15 25 15 7 0 15 -7 19 -15z"/>
<path d="M1252 2051 c-20 -12 -11 -65 12 -69 10 -2 22 0 27 5 6 6 1 9 -13 9
-18 -1 -23 4 -23 24 0 19 5 25 23 24 12 0 22 3 22 8 0 10 -31 10 -48 -1z"/>
<path d="M1349 2043 c-13 -17 -13 -17 6 -3 11 8 22 16 24 17 2 2 0 3 -6 3 -6
0 -17 -8 -24 -17z"/>
<path d="M1400 2046 c-6 -8 -10 -25 -8 -38 2 -18 10 -23 33 -25 27 -2 28 -1 6
5 -37 11 -38 32 -2 32 33 0 39 8 19 28 -16 16 -33 15 -48 -2z m40 -6 c0 -5 -9
-10 -21 -10 -11 0 -17 5 -14 10 3 6 13 10 21 10 8 0 14 -4 14 -10z"/>
<path d="M1481 2015 c2 -33 3 -35 6 -10 2 17 11 35 20 42 13 10 13 12 -6 10
-18 -1 -21 -7 -20 -42z"/>
<path d="M1766 2042 c-2 -4 4 -8 14 -8 10 0 16 4 14 8 -3 4 -9 8 -14 8 -5 0
-11 -4 -14 -8z"/>
<path d="M1828 2043 c7 -3 16 -2 19 1 4 3 -2 6 -13 5 -11 0 -14 -3 -6 -6z"/>
<path d="M1878 2043 c7 -3 16 -2 19 1 4 3 -2 6 -13 5 -11 0 -14 -3 -6 -6z"/>
<path d="M1966 2042 c-2 -4 4 -8 14 -8 10 0 16 4 14 8 -3 4 -9 8 -14 8 -5 0
-11 -4 -14 -8z"/>
<path d="M2038 2043 c7 -3 16 -2 19 1 4 3 -2 6 -13 5 -11 0 -14 -3 -6 -6z"/>
<path d="M2158 2043 c6 -2 18 -2 25 0 6 3 1 5 -13 5 -14 0 -19 -2 -12 -5z"/>
<path d="M2318 2043 c7 -3 16 -2 19 1 4 3 -2 6 -13 5 -11 0 -14 -3 -6 -6z"/>
<path d="M2722 2020 c0 -19 2 -27 5 -17 2 9 2 25 0 35 -3 9 -5 1 -5 -18z"/>
<path d="M2757 2043 c-3 -5 5 -8 18 -8 13 0 21 3 18 8 -2 4 -10 7 -18 7 -8 0
-16 -3 -18 -7z"/>
<path d="M2822 2020 c0 -19 2 -27 5 -17 2 9 2 25 0 35 -3 9 -5 1 -5 -18z"/>
<path d="M2898 2043 c7 -3 16 -2 19 1 4 3 -2 6 -13 5 -11 0 -14 -3 -6 -6z"/>
<path d="M2988 2043 c7 -3 16 -2 19 1 4 3 -2 6 -13 5 -11 0 -14 -3 -6 -6z"/>
<path d="M3046 2042 c-2 -4 4 -8 14 -8 10 0 16 4 14 8 -3 4 -9 8 -14 8 -5 0
-11 -4 -14 -8z"/>
<path d="M3105 2040 c-3 -6 1 -7 9 -4 18 7 21 14 7 14 -6 0 -13 -4 -16 -10z"/>
<path d="M3324 2043 c15 -4 16 -7 5 -14 -11 -7 -10 -9 4 -9 24 0 16 24 -9 27
-18 2 -18 2 0 -4z"/>
<path d="M3372 2020 c0 -19 2 -27 5 -17 2 9 2 25 0 35 -3 9 -5 1 -5 -18z"/>
<path d="M3454 2043 c15 -4 16 -7 5 -14 -11 -7 -10 -9 4 -9 24 0 16 24 -9 27
-18 2 -18 2 0 -4z"/>
<path d="M3505 2040 c-3 -6 1 -7 9 -4 18 7 21 14 7 14 -6 0 -13 -4 -16 -10z"/>
<path d="M3542 2020 c0 -19 2 -27 5 -17 2 9 2 25 0 35 -3 9 -5 1 -5 -18z"/>
<path d="M4006 2042 c-2 -4 4 -8 14 -8 10 0 16 4 14 8 -3 4 -9 8 -14 8 -5 0
-11 -4 -14 -8z"/>
<path d="M4075 2041 c-3 -7 0 -8 9 -5 10 4 16 -3 19 -23 l5 -28 -2 29 c-1 30
-19 45 -31 27z"/>
<path d="M4298 2043 c7 -3 16 -2 19 1 4 3 -2 6 -13 5 -11 0 -14 -3 -6 -6z"/>
<path d="M4538 2043 c7 -3 16 -2 19 1 4 3 -2 6 -13 5 -11 0 -14 -3 -6 -6z"/>
<path d="M4904 2028 l-19 -23 23 19 c21 18 27 26 19 26 -2 0 -12 -10 -23 -22z"/>
<path d="M5012 2020 c0 -19 2 -27 5 -17 2 9 2 25 0 35 -3 9 -5 1 -5 -18z"/>
<path d="M1865 2020 c-8 -13 3 -30 18 -29 9 0 9 2 0 6 -18 7 -16 21 5 26 15 4
15 5 0 6 -9 0 -20 -3 -23 -9z"/>
<path d="M2028 2023 c6 -2 18 -2 25 0 6 3 1 5 -13 5 -14 0 -19 -2 -12 -5z"/>
<path d="M2218 2023 c6 -2 18 -2 25 0 6 3 1 5 -13 5 -14 0 -19 -2 -12 -5z"/>
<path d="M2305 2020 c-8 -13 3 -30 18 -29 9 0 9 2 0 6 -18 7 -16 21 5 26 15 4
15 5 0 6 -9 0 -20 -3 -23 -9z"/>
<path d="M2638 2023 c7 -3 16 -2 19 1 4 3 -2 6 -13 5 -11 0 -14 -3 -6 -6z"/>
<path d="M2862 2010 c0 -14 2 -19 5 -12 2 6 2 18 0 25 -3 6 -5 1 -5 -13z"/>
<path d="M2975 2020 c-8 -13 3 -30 18 -29 9 0 9 2 0 6 -18 7 -16 21 5 26 15 4
15 5 0 6 -9 0 -20 -3 -23 -9z"/>
<path d="M3412 2010 c0 -14 2 -19 5 -12 2 6 2 18 0 25 -3 6 -5 1 -5 -13z"/>
<path d="M3578 2023 c6 -2 18 -2 25 0 6 3 1 5 -13 5 -14 0 -19 -2 -12 -5z"/>
<path d="M3678 2023 c6 -2 18 -2 25 0 6 3 1 5 -13 5 -14 0 -19 -2 -12 -5z"/>
<path d="M4178 2023 c6 -2 18 -2 25 0 6 3 1 5 -13 5 -14 0 -19 -2 -12 -5z"/>
<path d="M4958 2023 c6 -2 18 -2 25 0 6 3 1 5 -13 5 -14 0 -19 -2 -12 -5z"/>
<path d="M2028 1998 c5 -5 16 -8 23 -6 8 3 3 7 -10 11 -17 4 -21 3 -13 -5z"/>
<path d="M2218 1998 c5 -5 16 -8 23 -6 8 3 3 7 -10 11 -17 4 -21 3 -13 -5z"/>
<path d="M2635 2000 c-16 -7 -17 -9 -3 -9 9 -1 20 4 23 9 7 11 7 11 -20 0z"/>
<path d="M2757 1998 c2 -5 10 -8 18 -8 8 0 16 3 18 8 3 4 -5 7 -18 7 -13 0
-21 -3 -18 -7z"/>
<path d="M3107 1999 c7 -7 15 -10 18 -7 3 3 -2 9 -12 12 -14 6 -15 5 -6 -5z"/>
<path d="M3578 1998 c5 -5 16 -8 23 -6 8 3 3 7 -10 11 -17 4 -21 3 -13 -5z"/>
<path d="M4958 1998 c5 -5 16 -8 23 -6 8 3 3 7 -10 11 -17 4 -21 3 -13 -5z"/>
<path d="M1638 1993 c7 -3 16 -2 19 1 4 3 -2 6 -13 5 -11 0 -14 -3 -6 -6z"/>
<path d="M1698 1993 c7 -3 16 -2 19 1 4 3 -2 6 -13 5 -11 0 -14 -3 -6 -6z"/>
<path d="M2158 1993 c6 -2 18 -2 25 0 6 3 1 5 -13 5 -14 0 -19 -2 -12 -5z"/>
<path d="M3688 1993 c7 -3 16 -2 19 1 4 3 -2 6 -13 5 -11 0 -14 -3 -6 -6z"/>
<path d="M3938 1993 c7 -3 16 -2 19 1 4 3 -2 6 -13 5 -11 0 -14 -3 -6 -6z"/>
<path d="M4188 1993 c7 -3 16 -2 19 1 4 3 -2 6 -13 5 -11 0 -14 -3 -6 -6z"/>
<path d="M4778 1993 c7 -3 16 -2 19 1 4 3 -2 6 -13 5 -11 0 -14 -3 -6 -6z"/>
<path d="M4848 1993 c7 -3 16 -2 19 1 4 3 -2 6 -13 5 -11 0 -14 -3 -6 -6z"/>
<path d="M428 1983 c12 -2 30 -2 40 0 9 3 -1 5 -23 4 -22 0 -30 -2 -17 -4z"/>
<path d="M3508 1963 c7 -3 16 -2 19 1 4 3 -2 6 -13 5 -11 0 -14 -3 -6 -6z"/>
<path d="M5624 1488 c-36 -17 -44 -52 -44 -182 0 -138 10 -178 46 -195 35 -15
653 -15 688 0 36 17 46 57 46 189 0 132 -10 172 -46 189 -33 15 -659 14 -690
-1z m346 -188 c0 -33 -4 -60 -10 -60 -6 0 -10 27 -10 60 0 33 4 60 10 60 6 0
10 -27 10 -60z m-132 38 c17 -17 15 -64 -4 -82 -8 -9 -29 -16 -45 -16 -29 0
-29 1 -29 55 l0 55 33 0 c18 0 38 -5 45 -12z m268 -13 c9 -8 11 -15 5 -15 -15
0 -14 -57 2 -63 6 -3 2 -6 -10 -6 -20 -1 -23 4 -23 34 0 19 -4 35 -10 35 -5 0
-10 -7 -10 -15 0 -10 -10 -15 -30 -15 -23 0 -28 -4 -23 -16 3 -9 13 -14 24
-11 11 3 19 1 19 -5 0 -16 -52 -4 -64 15 -18 28 5 52 50 53 21 1 40 6 42 13 5
15 10 14 28 -4z m-178 -17 c20 -20 14 -28 -19 -28 -20 0 -29 -4 -26 -12 2 -7
14 -13 26 -12 11 0 21 -3 21 -8 0 -5 -15 -8 -32 -6 -26 2 -34 8 -36 26 -6 42
37 69 66 40z m270 -10 c3 -14 -3 -18 -27 -18 -24 0 -29 -4 -24 -16 3 -9 13
-14 24 -11 11 3 19 1 19 -4 0 -13 -44 -11 -58 3 -16 16 -15 41 0 56 18 18 62
11 66 -10z"/>
<path d="M5780 1295 c0 -46 13 -58 38 -33 25 25 8 78 -25 78 -9 0 -13 -15 -13
-45z"/>
<path d="M6005 1300 c-3 -5 3 -10 15 -10 12 0 18 5 15 10 -3 6 -10 10 -15 10
-5 0 -12 -4 -15 -10z"/>
<path d="M5885 1300 c-3 -5 1 -10 9 -10 9 0 16 5 16 10 0 6 -4 10 -9 10 -6 0
-13 -4 -16 -10z"/>
<path d="M6145 1300 c-3 -5 3 -10 15 -10 12 0 18 5 15 10 -3 6 -10 10 -15 10
-5 0 -12 -4 -15 -10z"/>
<path d="M428 1363 c12 -2 30 -2 40 0 9 3 -1 5 -23 4 -22 0 -30 -2 -17 -4z"/>
<path d="M612 1298 c-2 -57 -2 -58 26 -57 22 1 23 2 5 6 -19 4 -23 12 -26 56
l-3 52 -2 -57z"/>
<path d="M1041 1293 c1 -32 4 -48 6 -36 3 13 13 23 26 25 17 2 22 10 22 33 0
25 -4 30 -27 33 -28 3 -28 3 -27 -55z m44 22 c0 -11 -8 -21 -17 -23 -14 -3
-18 3 -18 23 0 20 4 26 18 23 9 -2 17 -12 17 -23z"/>
<path d="M1569 1334 c-11 -14 -10 -19 9 -34 12 -10 28 -20 34 -22 21 -7 -4
-30 -28 -25 -13 2 -24 0 -24 -4 0 -5 14 -9 30 -9 43 0 51 27 17 54 -34 28 -34
44 1 49 l27 4 -26 2 c-15 0 -33 -6 -40 -15z"/>
<path d="M1668 1339 c-21 -12 -25 -71 -5 -86 6 -6 32 -13 57 -16 25 -3 40 -4
34 -1 -8 3 -10 20 -6 46 4 33 1 44 -13 55 -22 15 -43 16 -67 2z m62 -13 c28
-35 -11 -93 -47 -70 -36 22 -23 84 17 84 10 0 23 -7 30 -14z"/>
<path d="M1782 1298 c-2 -57 -2 -58 26 -57 22 1 23 2 5 6 -19 4 -23 12 -26 56
l-3 52 -2 -57z"/>
<path d="M383 1305 c0 -22 2 -30 4 -17 2 12 2 30 0 40 -3 9 -5 -1 -4 -23z"/>
<path d="M503 1305 c0 -22 2 -30 4 -17 2 12 2 30 0 40 -3 9 -5 -1 -4 -23z"/>
<path d="M1278 1328 c-2 -7 -2 -29 2 -48 3 -25 11 -35 25 -37 11 -2 14 0 8 3
-16 7 -17 64 -2 64 6 0 4 7 -5 15 -18 18 -23 19 -28 3z"/>
<path d="M680 1301 c-8 -15 -8 -27 0 -41 11 -20 44 -27 54 -12 3 5 -4 8 -16 8
-12 -1 -23 5 -25 12 -3 7 5 12 22 12 20 0 26 4 23 18 -5 25 -44 27 -58 3z m45
-1 c3 -5 -3 -10 -14 -10 -12 0 -21 5 -21 10 0 6 6 10 14 10 8 0 18 -4 21 -10z"/>
<path d="M790 1309 l25 -11 -28 -10 c-37 -13 -33 -43 6 -44 26 -1 28 1 25 35
-3 30 -7 36 -28 38 l-25 3 25 -11z m20 -39 c0 -12 -28 -25 -36 -17 -9 9 6 27
22 27 8 0 14 -5 14 -10z"/>
<path d="M840 1280 c0 -22 5 -40 10 -40 6 0 10 15 10 34 0 24 5 36 18 39 10 3
6 5 -10 6 -26 1 -28 -2 -28 -39z"/>
<path d="M901 1275 l2 -40 6 35 c9 50 41 55 41 6 0 -20 5 -36 10 -36 12 0 13
50 2 68 -5 6 -20 11 -35 10 -25 -2 -27 -6 -26 -43z"/>
<path d="M1120 1300 c-22 -40 26 -80 58 -48 17 17 15 55 -4 62 -27 11 -43 7
-54 -14z m55 -20 c0 -16 -6 -26 -18 -28 -19 -4 -32 20 -23 44 9 25 41 13 41
-16z"/>
<path d="M1217 1313 c-13 -13 -7 -32 13 -38 26 -8 26 -22 0 -28 -17 -4 -17 -4
2 -3 30 1 36 32 9 41 -27 8 -27 29 -1 22 11 -3 20 -1 20 4 0 10 -33 12 -43 2z"/>
<path d="M1340 1305 c-6 -7 -10 -24 -8 -37 2 -18 9 -23 31 -23 20 1 27 -4 25
-15 -2 -9 -14 -15 -30 -15 -15 1 -24 -3 -22 -7 8 -12 38 -10 52 4 7 7 12 33
12 58 0 41 -2 46 -24 48 -13 1 -29 -5 -36 -13z m45 -25 c0 -29 -32 -41 -41
-16 -9 24 4 48 23 44 12 -2 18 -12 18 -28z"/>
<path d="M1431 1275 c2 -33 3 -35 6 -10 2 17 11 35 20 42 13 10 13 12 -6 10
-18 -1 -21 -7 -20 -42z"/>
<path d="M1490 1306 c-6 -8 -10 -25 -8 -38 2 -18 10 -23 33 -25 27 -2 28 -1 6
5 -37 11 -38 32 -2 32 33 0 39 8 19 28 -16 16 -33 15 -48 -2z m40 -6 c0 -5 -9
-10 -21 -10 -11 0 -17 5 -14 10 3 6 13 10 21 10 8 0 14 -4 14 -10z"/>
<path d="M428 1243 c12 -2 30 -2 40 0 9 3 -1 5 -23 4 -22 0 -30 -2 -17 -4z"/>
<path d="M5624 748 c-36 -17 -44 -52 -44 -182 0 -138 10 -178 46 -195 35 -15
653 -15 688 0 36 17 46 57 46 189 0 132 -10 172 -46 189 -33 15 -659 14 -690
-1z m346 -188 c0 -33 -4 -60 -10 -60 -6 0 -10 27 -10 60 0 33 4 60 10 60 6 0
10 -27 10 -60z m-132 38 c17 -17 15 -64 -4 -82 -8 -9 -29 -16 -45 -16 -29 0
-29 1 -29 55 l0 55 33 0 c18 0 38 -5 45 -12z m268 -13 c9 -8 11 -15 5 -15 -15
0 -14 -57 2 -63 6 -3 2 -6 -10 -6 -20 -1 -23 4 -23 34 0 19 -4 35 -10 35 -5 0
-10 -7 -10 -15 0 -10 -10 -15 -30 -15 -23 0 -28 -4 -23 -16 3 -9 13 -14 24
-11 11 3 19 1 19 -5 0 -16 -52 -4 -64 15 -18 28 5 52 50 53 21 1 40 6 42 13 5
15 10 14 28 -4z m-178 -17 c20 -20 14 -28 -19 -28 -20 0 -29 -4 -26 -12 2 -7
14 -13 26 -12 11 0 21 -3 21 -8 0 -5 -15 -8 -32 -6 -26 2 -34 8 -36 26 -6 42
37 69 66 40z m270 -10 c3 -14 -3 -18 -27 -18 -24 0 -29 -4 -24 -16 3 -9 13
-14 24 -11 11 3 19 1 19 -4 0 -13 -44 -11 -58 3 -16 16 -15 41 0 56 18 18 62
11 66 -10z"/>
<path d="M5780 555 c0 -46 13 -58 38 -33 25 25 8 78 -25 78 -9 0 -13 -15 -13
-45z"/>
<path d="M6005 560 c-3 -5 3 -10 15 -10 12 0 18 5 15 10 -3 6 -10 10 -15 10
-5 0 -12 -4 -15 -10z"/>
<path d="M5885 560 c-3 -5 1 -10 9 -10 9 0 16 5 16 10 0 6 -4 10 -9 10 -6 0
-13 -4 -16 -10z"/>
<path d="M6145 560 c-3 -5 3 -10 15 -10 12 0 18 5 15 10 -3 6 -10 10 -15 10
-5 0 -12 -4 -15 -10z"/>
<path d="M428 623 c12 -2 30 -2 40 0 9 3 -1 5 -23 4 -22 0 -30 -2 -17 -4z"/>
<path d="M1180 610 c0 -5 5 -10 10 -10 6 0 10 5 10 10 0 6 -4 10 -10 10 -5 0
-10 -4 -10 -10z"/>
<path d="M1220 560 c0 -33 4 -60 10 -60 6 0 10 27 10 60 0 33 -4 60 -10 60 -6
0 -10 -27 -10 -60z"/>
<path d="M1370 610 c0 -5 5 -10 10 -10 6 0 10 5 10 10 0 6 -4 10 -10 10 -5 0
-10 -4 -10 -10z"/>
<path d="M1560 596 c0 -18 -4 -23 -18 -19 -24 6 -44 -19 -40 -49 2 -18 10 -23
36 -24 l32 -1 0 59 c0 32 -2 58 -5 58 -3 0 -5 -11 -5 -24z m-5 -56 c0 -16 -6
-26 -18 -28 -19 -4 -32 20 -23 44 9 25 41 13 41 -16z"/>
<path d="M612 558 c-2 -57 -2 -58 26 -57 22 1 23 2 5 6 -19 4 -23 12 -26 56
l-3 52 -2 -57z"/>
<path d="M1037 603 c19 -4 23 -12 26 -56 l3 -52 2 52 c2 40 6 53 20 56 9 3 -3
5 -28 4 -25 0 -35 -2 -23 -4z"/>
<path d="M1656 594 c-19 -18 -21 -65 -4 -82 14 -14 68 -16 68 -3 0 5 -9 7 -20
4 -26 -7 -50 13 -50 42 0 29 24 49 50 42 11 -3 20 -1 20 4 0 15 -47 10 -64 -7z"/>
<path d="M1743 593 c-4 -11 3 -23 20 -37 34 -28 34 -44 0 -49 l-28 -4 26 -2
c39 -2 55 23 31 47 -11 11 -25 21 -33 24 -20 7 1 30 22 25 11 -3 19 -1 19 4 0
16 -50 10 -57 -8z"/>
<path d="M1829 594 c-11 -14 -10 -19 9 -34 12 -10 28 -20 34 -22 21 -7 -4 -30
-28 -25 -13 2 -24 0 -24 -4 0 -5 14 -9 30 -9 43 0 51 27 17 54 -34 28 -34 44
1 49 l27 4 -26 2 c-15 0 -33 -6 -40 -15z"/>
<path d="M383 565 c0 -22 2 -30 4 -17 2 12 2 30 0 40 -3 9 -5 -1 -4 -23z"/>
<path d="M503 565 c0 -22 2 -30 4 -17 2 12 2 30 0 40 -3 9 -5 -1 -4 -23z"/>
<path d="M680 561 c-8 -15 -8 -27 0 -41 11 -20 44 -27 54 -12 3 5 -4 8 -16 8
-12 -1 -23 5 -25 12 -3 7 5 12 22 12 20 0 26 4 23 18 -5 25 -44 27 -58 3z m45
-1 c3 -5 -3 -10 -14 -10 -12 0 -21 5 -21 10 0 6 6 10 14 10 8 0 18 -4 21 -10z"/>
<path d="M790 569 l25 -11 -28 -10 c-37 -13 -33 -43 6 -44 26 -1 28 1 25 35
-3 30 -7 36 -28 38 l-25 3 25 -11z m20 -39 c0 -12 -28 -25 -36 -17 -9 9 6 27
22 27 8 0 14 -5 14 -10z"/>
<path d="M840 540 c0 -22 5 -40 10 -40 6 0 10 15 10 34 0 24 5 36 18 39 10 3
6 5 -10 6 -26 1 -28 -2 -28 -39z"/>
<path d="M901 535 l2 -40 6 35 c9 50 41 55 41 6 0 -20 5 -36 10 -36 12 0 13
50 2 68 -5 6 -20 11 -35 10 -25 -2 -27 -6 -26 -43z"/>
<path d="M1105 571 c-3 -7 0 -8 9 -5 8 3 21 2 28 -2 9 -6 5 -10 -12 -14 -16
-4 -26 -14 -28 -28 -3 -20 1 -22 28 -20 29 2 31 5 28 38 -2 27 -8 36 -25 38
-11 2 -24 -2 -28 -7z m45 -41 c0 -12 -28 -25 -36 -17 -9 9 6 27 22 27 8 0 14
-5 14 -10z"/>
<path d="M1180 540 c0 -22 5 -40 10 -40 6 0 10 18 10 40 0 22 -4 40 -10 40 -5
0 -10 -18 -10 -40z"/>
<path d="M1253 564 c3 -11 8 -29 12 -41 9 -31 21 -29 30 5 l8 27 10 -27 c14
-37 21 -35 35 9 14 45 7 57 -9 17 -12 -28 -12 -29 -18 -6 -7 29 -25 30 -29 2
-4 -26 -22 -26 -22 -1 0 11 -5 23 -11 27 -7 4 -9 0 -6 -12z"/>
<path d="M1370 540 c0 -22 5 -40 10 -40 6 0 10 18 10 40 0 22 -4 40 -10 40 -5
0 -10 -18 -10 -40z"/>
<path d="M1410 539 c0 -47 17 -52 22 -6 4 44 31 43 40 -3 l6 -35 -1 40 c-2 38
-4 40 -34 42 -32 1 -33 0 -33 -38z"/>
<path d="M428 503 c12 -2 30 -2 40 0 9 3 -1 5 -23 4 -22 0 -30 -2 -17 -4z"/>
</g>
</svg>
